# xmcd CD database file
#
# Track frame offsets:
#	150
#	18808
#	37282
#	55779
#	69513
#	83916
#	101769
#	117413
#	133125
#	150475
#	168206
#
# Disc length: 2429 seconds
#
# Revision: 1
# Processed by: cddbd v1.4PL0 Copyright (c) Steve Scherf et al.
# Submitted via: CDex 1.50Beta6
#
DISCID=8d097b0b
DTITLE=Ariella - Ariella
DYEAR=2002
DGENRE=Blues
TTITLE0=I Think I'm In Love
TTITLE1=I Think I'm In Love (Duet With Don Philip)
TTITLE2=El Amor Eres Tu
TTITLE3=Love Games
TTITLE4=Juegos Del Amor
TTITLE5=Bye Bye
TTITLE6=My Friend
TTITLE7=Mi Amigo
TTITLE8=My Friend (Latin Mix)
TTITLE9=Shining Star
TTITLE10=Can't Break The Law
EXTD=YEAR: 2002
EXTT0=
EXTT1=
EXTT2=
EXTT3=
EXTT4=
EXTT5=
EXTT6=
EXTT7=
EXTT8=
EXTT9=
EXTT10=
PLAYORDER=
